<svg xmlns="http://www.w3.org/2000/svg" xmlns:xlink="http://www.w3.org/1999/xlink" width="100.0" height="100.0" viewBox="-79.398070248 43.660609452 0.004134995999990565 0.004696595999995168" preserveAspectRatio="xMinYMin meet"><g transform="matrix(1,0,0,-1,0,87.32591550000001)"><polyline fill="none" stroke="#66cc99" stroke-width="9.393191999990336e-05" points="-79.3941092,43.6651321 -79.3943333,43.6650598 -79.394661,43.6649908 -79.3948748,43.6649458 -79.3954436,43.6648261 -79.3957766,43.664756 -79.3958088,43.6647492 -79.3957773,43.6646722 -79.3957488,43.6646011 -79.3957689,43.6645973 -79.395717,43.6644653 -79.3953701,43.6636038 -79.3953562,43.6635686 -79.395484,43.6634204 -79.3962006,43.6632576 -79.3969295,43.6631362 -79.3968764,43.6630412 -79.3968302,43.6629647 -79.3967967,43.6629094 -79.3969994,43.6626408 -79.3973939,43.6625498 -79.3976503,43.6624952 -79.3975327,43.6621829 -79.3974873,43.6620687 -79.3975925,43.6620489 -79.3976635,43.6620331 -79.3972656,43.6610746 -79.3973654,43.6610548 -79.397436,43.6609296 -79.3976372,43.660887 -79.3977543,43.6608621 -79.3978963,43.660832 -79.3978775,43.6607834" opacity="0.8" /></g></svg>