<svg xmlns="http://www.w3.org/2000/svg" xmlns:xlink="http://www.w3.org/1999/xlink" width="100.0" height="100.0" viewBox="-79.399446196 43.659373004 0.0074167920000007825 0.005525691999999083" preserveAspectRatio="xMinYMin meet"><g transform="matrix(1,0,0,-1,0,87.3242717)"><polyline fill="none" stroke="#66cc99" stroke-width="0.00014833584000001565" points="-79.3923041,43.6645073 -79.392505,43.664624 -79.392592,43.6645623 -79.3925955,43.6644825 -79.3932836,43.6640144 -79.3933354,43.663981 -79.3932966,43.6639353 -79.3933355,43.6639187 -79.393373,43.6639027 -79.3934766,43.6638317 -79.3935408,43.6638047 -79.3942249,43.6636537 -79.394388,43.663619 -79.3943857,43.6635817 -79.3943835,43.6635275 -79.3944259,43.6629472 -79.394646,43.6626127 -79.3947185,43.6625894 -79.3947976,43.6625668 -79.3950849,43.6624964 -79.3954564,43.6624612 -79.3958209,43.6623354 -79.3959935,43.6622948 -79.3962994,43.6622588 -79.3964222,43.6622464 -79.396484,43.6622354 -79.3974873,43.6620687 -79.3975925,43.6620489 -79.3976635,43.6620331 -79.3977786,43.6620098 -79.3991715,43.6616771 -79.3991656,43.6614935 -79.3990803,43.6612797 -79.3988128,43.6606089 -79.3986268,43.6601424 -79.398606,43.6600905 -79.3985825,43.6600314 -79.3986852,43.6600087 -79.3988033,43.6599828 -79.3986661,43.6596477 -79.3980471,43.6597504" opacity="0.8" /></g></svg>