<?xml version="1.0" encoding="utf-8" standalone="no"?>
<!DOCTYPE svg PUBLIC "-//W3C//DTD SVG 1.1//EN"
  "http://www.w3.org/Graphics/SVG/1.1/DTD/svg11.dtd">
<svg height="231.84pt" version="1.1" viewBox="0 0 349.2 231.84" width="349.2pt" xmlns="http://www.w3.org/2000/svg" xmlns:xlink="http://www.w3.org/1999/xlink">
 <metadata>
  <rdf:RDF xmlns:cc="http://creativecommons.org/ns#" xmlns:dc="http://purl.org/dc/elements/1.1/" xmlns:rdf="http://www.w3.org/1999/02/22-rdf-syntax-ns#">
   <cc:Work>
    <dc:type rdf:resource="http://purl.org/dc/dcmitype/StillImage"/>
    <dc:date>2021-08-29T20:15:02.908866</dc:date>
    <dc:format>image/svg+xml</dc:format>
    <dc:creator>
     <cc:Agent>
      <dc:title>Matplotlib v3.4.3, https://matplotlib.org/</dc:title>
     </cc:Agent>
    </dc:creator>
   </cc:Work>
  </rdf:RDF>
 </metadata>
 <defs>
  <style type="text/css">*{stroke-linecap:butt;stroke-linejoin:round;}</style>
 </defs>
 <g id="figure_1">
  <g id="patch_1">
   <path d="M 0 231.84 
L 349.2 231.84 
L 349.2 0 
L 0 0 
z
" style="fill:none;"/>
  </g>
  <g id="axes_1">
   <g id="patch_2">
    <path d="M 7.2 224.64 
L 342 224.64 
L 342 7.2 
L 7.2 7.2 
z
" style="fill:#ffffff;"/>
   </g>
   <g id="LineCollection_1">
    <path clip-path="url(#pd0516618e0)" d="M 119.851321 35.888091 
L 168.394322 41.664899 
" style="fill:none;stroke:#000000;"/>
    <path clip-path="url(#pd0516618e0)" d="M 119.851321 35.888091 
L 125.749218 76.015254 
" style="fill:none;stroke:#000000;"/>
    <path clip-path="url(#pd0516618e0)" d="M 119.851321 35.888091 
L 36.252893 38.703416 
" style="fill:none;stroke:#000000;"/>
    <path clip-path="url(#pd0516618e0)" d="M 119.851321 35.888091 
L 170.065182 99.633754 
" style="fill:none;stroke:#ff0000;stroke-width:2;"/>
    <path clip-path="url(#pd0516618e0)" d="M 119.851321 35.888091 
L 226.816899 26.06876 
" style="fill:none;stroke:#ff0000;stroke-width:2;"/>
    <path clip-path="url(#pd0516618e0)" d="M 168.394322 41.664899 
L 125.749218 76.015254 
" style="fill:none;stroke:#000000;"/>
    <path clip-path="url(#pd0516618e0)" d="M 168.394322 41.664899 
L 226.816899 26.06876 
" style="fill:none;stroke:#000000;"/>
    <path clip-path="url(#pd0516618e0)" d="M 168.394322 41.664899 
L 170.065182 99.633754 
" style="fill:none;stroke:#ff0000;stroke-width:2;"/>
    <path clip-path="url(#pd0516618e0)" d="M 125.749218 76.015254 
L 226.816899 26.06876 
" style="fill:none;stroke:#000000;"/>
    <path clip-path="url(#pd0516618e0)" d="M 125.749218 76.015254 
L 94.770382 160.252273 
" style="fill:none;stroke:#000000;"/>
    <path clip-path="url(#pd0516618e0)" d="M 125.749218 76.015254 
L 141.025328 149.322752 
" style="fill:none;stroke:#000000;"/>
    <path clip-path="url(#pd0516618e0)" d="M 125.749218 76.015254 
L 240.015209 146.156255 
" style="fill:none;stroke:#000000;"/>
    <path clip-path="url(#pd0516618e0)" d="M 226.816899 26.06876 
L 290.419009 75.973034 
" style="fill:none;stroke:#000000;"/>
    <path clip-path="url(#pd0516618e0)" d="M 290.419009 75.973034 
L 312.947107 121.822083 
" style="fill:none;stroke:#000000;"/>
    <path clip-path="url(#pd0516618e0)" d="M 290.419009 75.973034 
L 202.341097 141.876685 
" style="fill:none;stroke:#000000;"/>
    <path clip-path="url(#pd0516618e0)" d="M 202.341097 141.876685 
L 94.770382 160.252273 
" style="fill:none;stroke:#000000;"/>
    <path clip-path="url(#pd0516618e0)" d="M 202.341097 141.876685 
L 141.025328 149.322752 
" style="fill:none;stroke:#000000;"/>
    <path clip-path="url(#pd0516618e0)" d="M 202.341097 141.876685 
L 312.947107 121.822083 
" style="fill:none;stroke:#000000;"/>
    <path clip-path="url(#pd0516618e0)" d="M 202.341097 141.876685 
L 240.015209 146.156255 
" style="fill:none;stroke:#000000;"/>
    <path clip-path="url(#pd0516618e0)" d="M 94.770382 160.252273 
L 141.025328 149.322752 
" style="fill:none;stroke:#000000;"/>
    <path clip-path="url(#pd0516618e0)" d="M 141.025328 149.322752 
L 240.015209 146.156255 
" style="fill:none;stroke:#000000;"/>
    <path clip-path="url(#pd0516618e0)" d="M 141.025328 149.322752 
L 170.065182 99.633754 
" style="fill:none;stroke:#000000;"/>
    <path clip-path="url(#pd0516618e0)" d="M 240.015209 146.156255 
L 244.240627 205.77124 
" style="fill:none;stroke:#000000;"/>
    <path clip-path="url(#pd0516618e0)" d="M 240.015209 146.156255 
L 312.947107 121.822083 
" style="fill:none;stroke:#000000;"/>
    <path clip-path="url(#pd0516618e0)" d="M 312.947107 121.822083 
L 281.977503 158.959112 
" style="fill:none;stroke:#000000;"/>
    <path clip-path="url(#pd0516618e0)" d="M 281.977503 158.959112 
L 244.240627 205.77124 
" style="fill:none;stroke:#000000;"/>
    <path clip-path="url(#pd0516618e0)" d="M 281.977503 158.959112 
L 170.065182 99.633754 
" style="fill:none;stroke:#000000;"/>
    <path clip-path="url(#pd0516618e0)" d="M 244.240627 205.77124 
L 170.065182 99.633754 
" style="fill:none;stroke:#000000;"/>
    <path clip-path="url(#pd0516618e0)" d="M 170.065182 99.633754 
L 36.252893 38.703416 
" style="fill:none;stroke:#000000;"/>
   </g>
   <g id="matplotlib.axis_1">
    <g id="xtick_1"/>
    <g id="xtick_2"/>
    <g id="xtick_3"/>
    <g id="xtick_4"/>
    <g id="xtick_5"/>
    <g id="xtick_6"/>
    <g id="xtick_7"/>
    <g id="xtick_8"/>
   </g>
   <g id="matplotlib.axis_2">
    <g id="ytick_1"/>
    <g id="ytick_2"/>
    <g id="ytick_3"/>
    <g id="ytick_4"/>
    <g id="ytick_5"/>
    <g id="ytick_6"/>
    <g id="ytick_7"/>
    <g id="ytick_8"/>
   </g>
   <g id="PathCollection_1">
    <defs>
     <path d="M 0 8.660254 
C 2.296726 8.660254 4.499694 7.747755 6.123724 6.123724 
C 7.747755 4.499694 8.660254 2.296726 8.660254 0 
C 8.660254 -2.296726 7.747755 -4.499694 6.123724 -6.123724 
C 4.499694 -7.747755 2.296726 -8.660254 0 -8.660254 
C -2.296726 -8.660254 -4.499694 -7.747755 -6.123724 -6.123724 
C -7.747755 -4.499694 -8.660254 -2.296726 -8.660254 0 
C -8.660254 2.296726 -7.747755 4.499694 -6.123724 6.123724 
C -4.499694 7.747755 -2.296726 8.660254 0 8.660254 
z
" id="me57ff66c43" style="stroke:#1f78b4;"/>
    </defs>
    <g clip-path="url(#pd0516618e0)">
     <use style="fill:#1f78b4;stroke:#1f78b4;" x="119.851321" xlink:href="#me57ff66c43" y="35.888091"/>
     <use style="fill:#1f78b4;stroke:#1f78b4;" x="168.394322" xlink:href="#me57ff66c43" y="41.664899"/>
     <use style="fill:#1f78b4;stroke:#1f78b4;" x="125.749218" xlink:href="#me57ff66c43" y="76.015254"/>
     <use style="fill:#1f78b4;stroke:#1f78b4;" x="226.816899" xlink:href="#me57ff66c43" y="26.06876"/>
     <use style="fill:#1f78b4;stroke:#1f78b4;" x="290.419009" xlink:href="#me57ff66c43" y="75.973034"/>
     <use style="fill:#1f78b4;stroke:#1f78b4;" x="202.341097" xlink:href="#me57ff66c43" y="141.876685"/>
     <use style="fill:#1f78b4;stroke:#1f78b4;" x="94.770382" xlink:href="#me57ff66c43" y="160.252273"/>
     <use style="fill:#1f78b4;stroke:#1f78b4;" x="141.025328" xlink:href="#me57ff66c43" y="149.322752"/>
     <use style="fill:#1f78b4;stroke:#1f78b4;" x="240.015209" xlink:href="#me57ff66c43" y="146.156255"/>
     <use style="fill:#1f78b4;stroke:#1f78b4;" x="312.947107" xlink:href="#me57ff66c43" y="121.822083"/>
     <use style="fill:#1f78b4;stroke:#1f78b4;" x="281.977503" xlink:href="#me57ff66c43" y="158.959112"/>
     <use style="fill:#1f78b4;stroke:#1f78b4;" x="244.240627" xlink:href="#me57ff66c43" y="205.77124"/>
     <use style="fill:#1f78b4;stroke:#1f78b4;" x="170.065182" xlink:href="#me57ff66c43" y="99.633754"/>
     <use style="fill:#1f78b4;stroke:#1f78b4;" x="36.252893" xlink:href="#me57ff66c43" y="38.703416"/>
    </g>
   </g>
   <g id="patch_3">
    <path d="M 7.2 224.64 
L 7.2 7.2 
" style="fill:none;stroke:#000000;stroke-linecap:square;stroke-linejoin:miter;stroke-width:0.8;"/>
   </g>
   <g id="patch_4">
    <path d="M 342 224.64 
L 342 7.2 
" style="fill:none;stroke:#000000;stroke-linecap:square;stroke-linejoin:miter;stroke-width:0.8;"/>
   </g>
   <g id="patch_5">
    <path d="M 7.2 224.64 
L 342 224.64 
" style="fill:none;stroke:#000000;stroke-linecap:square;stroke-linejoin:miter;stroke-width:0.8;"/>
   </g>
   <g id="patch_6">
    <path d="M 7.2 7.2 
L 342 7.2 
" style="fill:none;stroke:#000000;stroke-linecap:square;stroke-linejoin:miter;stroke-width:0.8;"/>
   </g>
   <g id="text_1">
    <g clip-path="url(#pd0516618e0)">
     <!-- 1 -->
     <g transform="translate(116.033821 39.199341)scale(0.12 -0.12)">
      <defs>
       <path d="M 794 531 
L 1825 531 
L 1825 4091 
L 703 3866 
L 703 4441 
L 1819 4666 
L 2450 4666 
L 2450 531 
L 3481 531 
L 3481 0 
L 794 0 
L 794 531 
z
" id="DejaVuSans-31" transform="scale(0.015625)"/>
      </defs>
      <use xlink:href="#DejaVuSans-31"/>
     </g>
    </g>
   </g>
   <g id="text_2">
    <g clip-path="url(#pd0516618e0)">
     <!-- 2 -->
     <g transform="translate(164.576822 44.976149)scale(0.12 -0.12)">
      <defs>
       <path d="M 1228 531 
L 3431 531 
L 3431 0 
L 469 0 
L 469 531 
Q 828 903 1448 1529 
Q 2069 2156 2228 2338 
Q 2531 2678 2651 2914 
Q 2772 3150 2772 3378 
Q 2772 3750 2511 3984 
Q 2250 4219 1831 4219 
Q 1534 4219 1204 4116 
Q 875 4013 500 3803 
L 500 4441 
Q 881 4594 1212 4672 
Q 1544 4750 1819 4750 
Q 2544 4750 2975 4387 
Q 3406 4025 3406 3419 
Q 3406 3131 3298 2873 
Q 3191 2616 2906 2266 
Q 2828 2175 2409 1742 
Q 1991 1309 1228 531 
z
" id="DejaVuSans-32" transform="scale(0.015625)"/>
      </defs>
      <use xlink:href="#DejaVuSans-32"/>
     </g>
    </g>
   </g>
   <g id="text_3">
    <g clip-path="url(#pd0516618e0)">
     <!-- 3 -->
     <g transform="translate(121.931718 79.326504)scale(0.12 -0.12)">
      <defs>
       <path d="M 2597 2516 
Q 3050 2419 3304 2112 
Q 3559 1806 3559 1356 
Q 3559 666 3084 287 
Q 2609 -91 1734 -91 
Q 1441 -91 1130 -33 
Q 819 25 488 141 
L 488 750 
Q 750 597 1062 519 
Q 1375 441 1716 441 
Q 2309 441 2620 675 
Q 2931 909 2931 1356 
Q 2931 1769 2642 2001 
Q 2353 2234 1838 2234 
L 1294 2234 
L 1294 2753 
L 1863 2753 
Q 2328 2753 2575 2939 
Q 2822 3125 2822 3475 
Q 2822 3834 2567 4026 
Q 2313 4219 1838 4219 
Q 1578 4219 1281 4162 
Q 984 4106 628 3988 
L 628 4550 
Q 988 4650 1302 4700 
Q 1616 4750 1894 4750 
Q 2613 4750 3031 4423 
Q 3450 4097 3450 3541 
Q 3450 3153 3228 2886 
Q 3006 2619 2597 2516 
z
" id="DejaVuSans-33" transform="scale(0.015625)"/>
      </defs>
      <use xlink:href="#DejaVuSans-33"/>
     </g>
    </g>
   </g>
   <g id="text_4">
    <g clip-path="url(#pd0516618e0)">
     <!-- 4 -->
     <g transform="translate(222.999399 29.38001)scale(0.12 -0.12)">
      <defs>
       <path d="M 2419 4116 
L 825 1625 
L 2419 1625 
L 2419 4116 
z
M 2253 4666 
L 3047 4666 
L 3047 1625 
L 3713 1625 
L 3713 1100 
L 3047 1100 
L 3047 0 
L 2419 0 
L 2419 1100 
L 313 1100 
L 313 1709 
L 2253 4666 
z
" id="DejaVuSans-34" transform="scale(0.015625)"/>
      </defs>
      <use xlink:href="#DejaVuSans-34"/>
     </g>
    </g>
   </g>
   <g id="text_5">
    <g clip-path="url(#pd0516618e0)">
     <!-- 5 -->
     <g transform="translate(286.601509 79.284284)scale(0.12 -0.12)">
      <defs>
       <path d="M 691 4666 
L 3169 4666 
L 3169 4134 
L 1269 4134 
L 1269 2991 
Q 1406 3038 1543 3061 
Q 1681 3084 1819 3084 
Q 2600 3084 3056 2656 
Q 3513 2228 3513 1497 
Q 3513 744 3044 326 
Q 2575 -91 1722 -91 
Q 1428 -91 1123 -41 
Q 819 9 494 109 
L 494 744 
Q 775 591 1075 516 
Q 1375 441 1709 441 
Q 2250 441 2565 725 
Q 2881 1009 2881 1497 
Q 2881 1984 2565 2268 
Q 2250 2553 1709 2553 
Q 1456 2553 1204 2497 
Q 953 2441 691 2322 
L 691 4666 
z
" id="DejaVuSans-35" transform="scale(0.015625)"/>
      </defs>
      <use xlink:href="#DejaVuSans-35"/>
     </g>
    </g>
   </g>
   <g id="text_6">
    <g clip-path="url(#pd0516618e0)">
     <!-- 6 -->
     <g transform="translate(198.523597 145.187935)scale(0.12 -0.12)">
      <defs>
       <path d="M 2113 2584 
Q 1688 2584 1439 2293 
Q 1191 2003 1191 1497 
Q 1191 994 1439 701 
Q 1688 409 2113 409 
Q 2538 409 2786 701 
Q 3034 994 3034 1497 
Q 3034 2003 2786 2293 
Q 2538 2584 2113 2584 
z
M 3366 4563 
L 3366 3988 
Q 3128 4100 2886 4159 
Q 2644 4219 2406 4219 
Q 1781 4219 1451 3797 
Q 1122 3375 1075 2522 
Q 1259 2794 1537 2939 
Q 1816 3084 2150 3084 
Q 2853 3084 3261 2657 
Q 3669 2231 3669 1497 
Q 3669 778 3244 343 
Q 2819 -91 2113 -91 
Q 1303 -91 875 529 
Q 447 1150 447 2328 
Q 447 3434 972 4092 
Q 1497 4750 2381 4750 
Q 2619 4750 2861 4703 
Q 3103 4656 3366 4563 
z
" id="DejaVuSans-36" transform="scale(0.015625)"/>
      </defs>
      <use xlink:href="#DejaVuSans-36"/>
     </g>
    </g>
   </g>
   <g id="text_7">
    <g clip-path="url(#pd0516618e0)">
     <!-- 7 -->
     <g transform="translate(90.952882 163.563523)scale(0.12 -0.12)">
      <defs>
       <path d="M 525 4666 
L 3525 4666 
L 3525 4397 
L 1831 0 
L 1172 0 
L 2766 4134 
L 525 4134 
L 525 4666 
z
" id="DejaVuSans-37" transform="scale(0.015625)"/>
      </defs>
      <use xlink:href="#DejaVuSans-37"/>
     </g>
    </g>
   </g>
   <g id="text_8">
    <g clip-path="url(#pd0516618e0)">
     <!-- 8 -->
     <g transform="translate(137.207828 152.634002)scale(0.12 -0.12)">
      <defs>
       <path d="M 2034 2216 
Q 1584 2216 1326 1975 
Q 1069 1734 1069 1313 
Q 1069 891 1326 650 
Q 1584 409 2034 409 
Q 2484 409 2743 651 
Q 3003 894 3003 1313 
Q 3003 1734 2745 1975 
Q 2488 2216 2034 2216 
z
M 1403 2484 
Q 997 2584 770 2862 
Q 544 3141 544 3541 
Q 544 4100 942 4425 
Q 1341 4750 2034 4750 
Q 2731 4750 3128 4425 
Q 3525 4100 3525 3541 
Q 3525 3141 3298 2862 
Q 3072 2584 2669 2484 
Q 3125 2378 3379 2068 
Q 3634 1759 3634 1313 
Q 3634 634 3220 271 
Q 2806 -91 2034 -91 
Q 1263 -91 848 271 
Q 434 634 434 1313 
Q 434 1759 690 2068 
Q 947 2378 1403 2484 
z
M 1172 3481 
Q 1172 3119 1398 2916 
Q 1625 2713 2034 2713 
Q 2441 2713 2670 2916 
Q 2900 3119 2900 3481 
Q 2900 3844 2670 4047 
Q 2441 4250 2034 4250 
Q 1625 4250 1398 4047 
Q 1172 3844 1172 3481 
z
" id="DejaVuSans-38" transform="scale(0.015625)"/>
      </defs>
      <use xlink:href="#DejaVuSans-38"/>
     </g>
    </g>
   </g>
   <g id="text_9">
    <g clip-path="url(#pd0516618e0)">
     <!-- 9 -->
     <g transform="translate(236.197709 149.467505)scale(0.12 -0.12)">
      <defs>
       <path d="M 703 97 
L 703 672 
Q 941 559 1184 500 
Q 1428 441 1663 441 
Q 2288 441 2617 861 
Q 2947 1281 2994 2138 
Q 2813 1869 2534 1725 
Q 2256 1581 1919 1581 
Q 1219 1581 811 2004 
Q 403 2428 403 3163 
Q 403 3881 828 4315 
Q 1253 4750 1959 4750 
Q 2769 4750 3195 4129 
Q 3622 3509 3622 2328 
Q 3622 1225 3098 567 
Q 2575 -91 1691 -91 
Q 1453 -91 1209 -44 
Q 966 3 703 97 
z
M 1959 2075 
Q 2384 2075 2632 2365 
Q 2881 2656 2881 3163 
Q 2881 3666 2632 3958 
Q 2384 4250 1959 4250 
Q 1534 4250 1286 3958 
Q 1038 3666 1038 3163 
Q 1038 2656 1286 2365 
Q 1534 2075 1959 2075 
z
" id="DejaVuSans-39" transform="scale(0.015625)"/>
      </defs>
      <use xlink:href="#DejaVuSans-39"/>
     </g>
    </g>
   </g>
   <g id="text_10">
    <g clip-path="url(#pd0516618e0)">
     <!-- 10 -->
     <g transform="translate(305.312107 125.133333)scale(0.12 -0.12)">
      <defs>
       <path d="M 2034 4250 
Q 1547 4250 1301 3770 
Q 1056 3291 1056 2328 
Q 1056 1369 1301 889 
Q 1547 409 2034 409 
Q 2525 409 2770 889 
Q 3016 1369 3016 2328 
Q 3016 3291 2770 3770 
Q 2525 4250 2034 4250 
z
M 2034 4750 
Q 2819 4750 3233 4129 
Q 3647 3509 3647 2328 
Q 3647 1150 3233 529 
Q 2819 -91 2034 -91 
Q 1250 -91 836 529 
Q 422 1150 422 2328 
Q 422 3509 836 4129 
Q 1250 4750 2034 4750 
z
" id="DejaVuSans-30" transform="scale(0.015625)"/>
      </defs>
      <use xlink:href="#DejaVuSans-31"/>
      <use x="63.623047" xlink:href="#DejaVuSans-30"/>
     </g>
    </g>
   </g>
   <g id="text_11">
    <g clip-path="url(#pd0516618e0)">
     <!-- 11 -->
     <g transform="translate(274.342503 162.270362)scale(0.12 -0.12)">
      <use xlink:href="#DejaVuSans-31"/>
      <use x="63.623047" xlink:href="#DejaVuSans-31"/>
     </g>
    </g>
   </g>
   <g id="text_12">
    <g clip-path="url(#pd0516618e0)">
     <!-- 12 -->
     <g transform="translate(236.605627 209.08249)scale(0.12 -0.12)">
      <use xlink:href="#DejaVuSans-31"/>
      <use x="63.623047" xlink:href="#DejaVuSans-32"/>
     </g>
    </g>
   </g>
   <g id="text_13">
    <g clip-path="url(#pd0516618e0)">
     <!-- 13 -->
     <g transform="translate(162.430182 102.945004)scale(0.12 -0.12)">
      <use xlink:href="#DejaVuSans-31"/>
      <use x="63.623047" xlink:href="#DejaVuSans-33"/>
     </g>
    </g>
   </g>
   <g id="text_14">
    <g clip-path="url(#pd0516618e0)">
     <!-- 14 -->
     <g transform="translate(28.617893 42.014666)scale(0.12 -0.12)">
      <use xlink:href="#DejaVuSans-31"/>
      <use x="63.623047" xlink:href="#DejaVuSans-34"/>
     </g>
    </g>
   </g>
  </g>
 </g>
 <defs>
  <clipPath id="pd0516618e0">
   <rect height="217.44" width="334.8" x="7.2" y="7.2"/>
  </clipPath>
 </defs>
</svg>
